# xmcd
# 
# Track frame offsets:
#     150
#     1191
#     45774
#     73058
#     89080
#     116154
#     140378
#     166175
#     190326
#     213448
#     234433
#     266873
#     283658
#     309679
# 
# Disc length: 4577
# 
# Revision: 1
# Processed by: cddbd v1.5.1PL2 Copyright (c) Steve Scherf et al.
# Submitted via: BonkEnc v1.0beta4
# 
DISCID=c911df0e
DTITLE=Gilles Peterson - Gilles Peterson presents - BBC Sessions - Disc1
DYEAR=2005
DGENRE=Jazz
TTITLE0=Heritage Orchestra - Intro
TTITLE1=The Heritage Orchestra - Telescopic
TTITLE2=The Matthew Herbert Big Band - The Audience
TTITLE3=Bjork - Who is it ?
TTITLE4=Beck - Round The Bend
TTITLE5=Roots Manuva - Dreamy Days
TTITLE6=Peven Everett - Gabrielle
TTITLE7=Spektrum - Kinda New
TTITLE8=Beth Gibbons - Romance
TTITLE9=Nitin Sawhney - Gilles Smiles
TTITLE10=Plantlife - 3am
TTITLE11=Jazmine Sullivan - Braid Your Hair
TTITLE12=Fat Freddy's Drop - This Room
TTITLE13=N.E.R.D. - Improvised Jam
EXTD=YEAR: 2005
EXTT0=
EXTT1=
EXTT2=
EXTT3=
EXTT4=
EXTT5=
EXTT6=
EXTT7=
EXTT8=
EXTT9=
EXTT10=
EXTT11=
EXTT12=
EXTT13=
PLAYORDER=
